<mxfile host="65bd71144e">
    <diagram id="5f1qsJ-k96uJmgbrYSEO" name="Page-1">
        <mxGraphModel dx="1711" dy="2869" grid="1" gridSize="10" guides="1" tooltips="1" connect="1" arrows="1" fold="1" page="1" pageScale="1" pageWidth="850" pageHeight="1100" math="0" shadow="0">
            <root>
                <mxCell id="0"/>
                <mxCell id="1" parent="0"/>
                <mxCell id="19" value="" style="rounded=0;whiteSpace=wrap;html=1;aspect=fixed;" vertex="1" parent="1">
                    <mxGeometry x="850" y="-2120" width="500" height="1000" as="geometry"/>
                </mxCell>
                <mxCell id="43" value="" style="rounded=0;whiteSpace=wrap;html=1;fontSize=40;strokeWidth=1;fillColor=none;" vertex="1" parent="1">
                    <mxGeometry x="869.38" y="-1250" width="150" height="130" as="geometry"/>
                </mxCell>
                <mxCell id="45" value="" style="rounded=0;whiteSpace=wrap;html=1;fontSize=40;strokeWidth=1;fillColor=none;" vertex="1" parent="1">
                    <mxGeometry x="1029.38" y="-1250" width="150" height="130" as="geometry"/>
                </mxCell>
                <mxCell id="46" value="" style="rounded=0;whiteSpace=wrap;html=1;fontSize=40;strokeWidth=1;fillColor=default;" vertex="1" parent="1">
                    <mxGeometry x="1191.88" y="-1250" width="150" height="130" as="geometry"/>
                </mxCell>
                <mxCell id="3" value="" style="rounded=0;whiteSpace=wrap;html=1;aspect=fixed;" vertex="1" parent="1">
                    <mxGeometry x="80" y="-2120" width="500" height="1000" as="geometry"/>
                </mxCell>
                <mxCell id="4" value="" style="rounded=0;whiteSpace=wrap;html=1;" vertex="1" parent="1">
                    <mxGeometry x="80" y="-1210" width="500" height="90" as="geometry"/>
                </mxCell>
                <mxCell id="9" value="" style="dashed=0;aspect=fixed;verticalLabelPosition=bottom;verticalAlign=top;align=center;shape=mxgraph.gmdl.users;strokeColor=none;fillColor=#1A1A1A;shadow=0;sketch=0;" vertex="1" parent="1">
                    <mxGeometry x="492.5" y="-1190" width="55" height="36.67" as="geometry"/>
                </mxCell>
                <mxCell id="10" value="Account" style="text;html=1;strokeColor=none;fillColor=none;align=center;verticalAlign=middle;whiteSpace=wrap;rounded=0;" vertex="1" parent="1">
                    <mxGeometry x="490" y="-1150" width="60" height="20" as="geometry"/>
                </mxCell>
                <mxCell id="11" value="" style="dashed=0;aspect=fixed;verticalLabelPosition=bottom;verticalAlign=top;align=center;shape=mxgraph.gmdl.navigate;strokeColor=none;fillColor=#1A1A1A;shadow=0;sketch=0;" vertex="1" parent="1">
                    <mxGeometry x="305" y="-1190" width="40" height="40" as="geometry"/>
                </mxCell>
                <mxCell id="12" value="Search" style="text;html=1;strokeColor=none;fillColor=none;align=center;verticalAlign=middle;whiteSpace=wrap;rounded=0;" vertex="1" parent="1">
                    <mxGeometry x="295" y="-1150" width="60" height="20" as="geometry"/>
                </mxCell>
                <mxCell id="13" value="" style="sketch=0;pointerEvents=1;shadow=0;dashed=0;html=1;strokeColor=none;fillColor=#1A1A1A;labelPosition=center;verticalLabelPosition=bottom;verticalAlign=top;outlineConnect=0;align=center;shape=mxgraph.office.concepts.home;" vertex="1" parent="1">
                    <mxGeometry x="100" y="-1186.66" width="40" height="36.66" as="geometry"/>
                </mxCell>
                <mxCell id="14" value="Home" style="text;html=1;strokeColor=none;fillColor=none;align=center;verticalAlign=middle;whiteSpace=wrap;rounded=0;" vertex="1" parent="1">
                    <mxGeometry x="90" y="-1150" width="60" height="20" as="geometry"/>
                </mxCell>
                <mxCell id="15" value="" style="html=1;shadow=0;dashed=0;align=center;verticalAlign=middle;shape=mxgraph.arrows2.arrow;dy=0.6;dx=14.19;direction=south;notch=0;fillColor=#1A1A1A;" vertex="1" parent="1">
                    <mxGeometry x="409" y="-1184" width="30" height="30" as="geometry"/>
                </mxCell>
                <mxCell id="16" value="Downloads" style="text;html=1;strokeColor=none;fillColor=none;align=center;verticalAlign=middle;whiteSpace=wrap;rounded=0;" vertex="1" parent="1">
                    <mxGeometry x="394" y="-1150" width="56" height="20" as="geometry"/>
                </mxCell>
                <mxCell id="17" value="" style="sketch=0;pointerEvents=1;shadow=0;dashed=0;html=1;strokeColor=none;fillColor=#1A1A1A;labelPosition=center;verticalLabelPosition=bottom;verticalAlign=top;outlineConnect=0;align=center;shape=mxgraph.office.concepts.video_play;" vertex="1" parent="1">
                    <mxGeometry x="197.5" y="-1185" width="45" height="33.34" as="geometry"/>
                </mxCell>
                <mxCell id="18" value="Practice" style="text;html=1;strokeColor=none;fillColor=none;align=center;verticalAlign=middle;whiteSpace=wrap;rounded=0;" vertex="1" parent="1">
                    <mxGeometry x="190" y="-1146.6599999999999" width="60" height="20" as="geometry"/>
                </mxCell>
                <mxCell id="20" value="" style="rounded=0;whiteSpace=wrap;html=1;" vertex="1" parent="1">
                    <mxGeometry x="850" y="-1210" width="500" height="90" as="geometry"/>
                </mxCell>
                <mxCell id="21" value="" style="dashed=0;aspect=fixed;verticalLabelPosition=bottom;verticalAlign=top;align=center;shape=mxgraph.gmdl.users;strokeColor=none;fillColor=#1A1A1A;shadow=0;sketch=0;" vertex="1" parent="1">
                    <mxGeometry x="1262.5" y="-1190" width="55" height="36.67" as="geometry"/>
                </mxCell>
                <mxCell id="22" value="Account" style="text;html=1;strokeColor=none;fillColor=none;align=center;verticalAlign=middle;whiteSpace=wrap;rounded=0;" vertex="1" parent="1">
                    <mxGeometry x="1260" y="-1150" width="60" height="20" as="geometry"/>
                </mxCell>
                <mxCell id="23" value="" style="dashed=0;aspect=fixed;verticalLabelPosition=bottom;verticalAlign=top;align=center;shape=mxgraph.gmdl.navigate;strokeColor=none;fillColor=#1A1A1A;shadow=0;sketch=0;" vertex="1" parent="1">
                    <mxGeometry x="1075" y="-1190" width="40" height="40" as="geometry"/>
                </mxCell>
                <mxCell id="24" value="Search" style="text;html=1;strokeColor=none;fillColor=none;align=center;verticalAlign=middle;whiteSpace=wrap;rounded=0;" vertex="1" parent="1">
                    <mxGeometry x="1065" y="-1150" width="60" height="20" as="geometry"/>
                </mxCell>
                <mxCell id="25" value="" style="sketch=0;pointerEvents=1;shadow=0;dashed=0;html=1;strokeColor=none;fillColor=#4C0099;labelPosition=center;verticalLabelPosition=bottom;verticalAlign=top;outlineConnect=0;align=center;shape=mxgraph.office.concepts.home;fontColor=#660066;labelBackgroundColor=#7F00FF;" vertex="1" parent="1">
                    <mxGeometry x="870" y="-1186.66" width="40" height="36.66" as="geometry"/>
                </mxCell>
                <mxCell id="26" value="Home" style="text;html=1;strokeColor=none;fillColor=none;align=center;verticalAlign=middle;whiteSpace=wrap;rounded=0;fontColor=#4C0099;" vertex="1" parent="1">
                    <mxGeometry x="860" y="-1150" width="60" height="20" as="geometry"/>
                </mxCell>
                <mxCell id="27" value="" style="html=1;shadow=0;dashed=0;align=center;verticalAlign=middle;shape=mxgraph.arrows2.arrow;dy=0.6;dx=14.19;direction=south;notch=0;fillColor=#1A1A1A;" vertex="1" parent="1">
                    <mxGeometry x="1179" y="-1184" width="30" height="30" as="geometry"/>
                </mxCell>
                <mxCell id="28" value="Downloads" style="text;html=1;strokeColor=none;fillColor=none;align=center;verticalAlign=middle;whiteSpace=wrap;rounded=0;" vertex="1" parent="1">
                    <mxGeometry x="1164" y="-1150" width="56" height="20" as="geometry"/>
                </mxCell>
                <mxCell id="29" value="" style="sketch=0;pointerEvents=1;shadow=0;dashed=0;html=1;strokeColor=none;fillColor=#1A1A1A;labelPosition=center;verticalLabelPosition=bottom;verticalAlign=top;outlineConnect=0;align=center;shape=mxgraph.office.concepts.video_play;" vertex="1" parent="1">
                    <mxGeometry x="967.5" y="-1185" width="45" height="33.34" as="geometry"/>
                </mxCell>
                <mxCell id="30" value="Practice" style="text;html=1;strokeColor=none;fillColor=none;align=center;verticalAlign=middle;whiteSpace=wrap;rounded=0;" vertex="1" parent="1">
                    <mxGeometry x="960" y="-1146.6599999999999" width="60" height="20" as="geometry"/>
                </mxCell>
                <mxCell id="31" value="&lt;font style=&quot;font-size: 40px;&quot;&gt;PolyCode&lt;/font&gt;" style="rounded=0;whiteSpace=wrap;html=1;strokeColor=none;fontSize=40;strokeWidth=0;fillColor=none;" vertex="1" parent="1">
                    <mxGeometry x="976.25" y="-2120" width="247.5" height="60" as="geometry"/>
                </mxCell>
                <mxCell id="32" value="Home" style="text;html=1;strokeColor=none;fillColor=none;align=center;verticalAlign=middle;whiteSpace=wrap;rounded=0;fontSize=40;" vertex="1" parent="1">
                    <mxGeometry x="1005" y="-2180" width="180" height="30" as="geometry"/>
                </mxCell>
                <mxCell id="33" value="Featured Practice Module" style="rounded=0;whiteSpace=wrap;html=1;fontSize=40;strokeWidth=1;" vertex="1" parent="1">
                    <mxGeometry x="850" y="-2040" width="500" height="340" as="geometry"/>
                </mxCell>
                <mxCell id="34" value="" style="rounded=0;whiteSpace=wrap;html=1;fontSize=40;strokeWidth=1;fillColor=none;" vertex="1" parent="1">
                    <mxGeometry x="863.75" y="-1650" width="150" height="140" as="geometry"/>
                </mxCell>
                <mxCell id="35" value="New modules" style="text;html=1;strokeColor=none;fillColor=none;align=left;verticalAlign=middle;whiteSpace=wrap;rounded=0;fontSize=25;" vertex="1" parent="1">
                    <mxGeometry x="863.75" y="-1690" width="170" height="30" as="geometry"/>
                </mxCell>
                <mxCell id="37" value="" style="rounded=0;whiteSpace=wrap;html=1;fontSize=40;strokeWidth=1;fillColor=none;" vertex="1" parent="1">
                    <mxGeometry x="1023.75" y="-1650" width="150" height="140" as="geometry"/>
                </mxCell>
                <mxCell id="38" value="" style="rounded=0;whiteSpace=wrap;html=1;fontSize=40;strokeWidth=1;fillColor=default;" vertex="1" parent="1">
                    <mxGeometry x="1186.25" y="-1650" width="150" height="140" as="geometry"/>
                </mxCell>
                <mxCell id="39" value="" style="rounded=0;whiteSpace=wrap;html=1;fontSize=40;strokeWidth=1;fillColor=none;" vertex="1" parent="1">
                    <mxGeometry x="863.75" y="-1450" width="150" height="140" as="geometry"/>
                </mxCell>
                <mxCell id="40" value="Continue where you stopped" style="text;html=1;strokeColor=none;fillColor=none;align=left;verticalAlign=middle;whiteSpace=wrap;rounded=0;fontSize=25;" vertex="1" parent="1">
                    <mxGeometry x="863.75" y="-1490" width="340" height="30" as="geometry"/>
                </mxCell>
                <mxCell id="41" value="" style="rounded=0;whiteSpace=wrap;html=1;fontSize=40;strokeWidth=1;fillColor=none;" vertex="1" parent="1">
                    <mxGeometry x="1023.75" y="-1450" width="150" height="140" as="geometry"/>
                </mxCell>
                <mxCell id="42" value="" style="rounded=0;whiteSpace=wrap;html=1;fontSize=40;strokeWidth=1;fillColor=default;" vertex="1" parent="1">
                    <mxGeometry x="1186.25" y="-1450" width="150" height="140" as="geometry"/>
                </mxCell>
                <mxCell id="44" value="Read on the go" style="text;html=1;strokeColor=none;fillColor=none;align=left;verticalAlign=middle;whiteSpace=wrap;rounded=0;fontSize=25;" vertex="1" parent="1">
                    <mxGeometry x="863.75" y="-1290" width="340" height="30" as="geometry"/>
                </mxCell>
                <mxCell id="50" value="" style="rounded=0;whiteSpace=wrap;html=1;aspect=fixed;" vertex="1" parent="1">
                    <mxGeometry x="1700" y="-2120" width="500" height="1000" as="geometry"/>
                </mxCell>
                <mxCell id="54" value="" style="rounded=0;whiteSpace=wrap;html=1;fontColor=#000000;" vertex="1" parent="1">
                    <mxGeometry x="1700" y="-1210" width="500" height="90" as="geometry"/>
                </mxCell>
                <mxCell id="55" value="" style="dashed=0;aspect=fixed;verticalLabelPosition=bottom;verticalAlign=top;align=center;shape=mxgraph.gmdl.users;strokeColor=none;fillColor=#4C0099;shadow=0;sketch=0;fontColor=#000000;" vertex="1" parent="1">
                    <mxGeometry x="2112.5" y="-1190" width="55" height="36.67" as="geometry"/>
                </mxCell>
                <mxCell id="56" value="Account" style="text;html=1;strokeColor=none;fillColor=none;align=center;verticalAlign=middle;whiteSpace=wrap;rounded=0;fontColor=#4C0099;" vertex="1" parent="1">
                    <mxGeometry x="2110" y="-1150" width="60" height="20" as="geometry"/>
                </mxCell>
                <mxCell id="57" value="" style="dashed=0;aspect=fixed;verticalLabelPosition=bottom;verticalAlign=top;align=center;shape=mxgraph.gmdl.navigate;strokeColor=none;fillColor=#1A1A1A;shadow=0;sketch=0;fontColor=#000000;" vertex="1" parent="1">
                    <mxGeometry x="1925" y="-1190" width="40" height="40" as="geometry"/>
                </mxCell>
                <mxCell id="58" value="Search" style="text;html=1;strokeColor=none;fillColor=none;align=center;verticalAlign=middle;whiteSpace=wrap;rounded=0;fontColor=#000000;" vertex="1" parent="1">
                    <mxGeometry x="1915" y="-1150" width="60" height="20" as="geometry"/>
                </mxCell>
                <mxCell id="59" value="" style="sketch=0;pointerEvents=1;shadow=0;dashed=0;html=1;strokeColor=none;fillColor=#1A1A1A;labelPosition=center;verticalLabelPosition=bottom;verticalAlign=top;outlineConnect=0;align=center;shape=mxgraph.office.concepts.home;fontColor=#000000;labelBackgroundColor=#7F00FF;" vertex="1" parent="1">
                    <mxGeometry x="1720" y="-1186.66" width="40" height="36.66" as="geometry"/>
                </mxCell>
                <mxCell id="60" value="Home" style="text;html=1;strokeColor=none;fillColor=none;align=center;verticalAlign=middle;whiteSpace=wrap;rounded=0;fontColor=#000000;" vertex="1" parent="1">
                    <mxGeometry x="1710" y="-1150" width="60" height="20" as="geometry"/>
                </mxCell>
                <mxCell id="61" value="" style="html=1;shadow=0;dashed=0;align=center;verticalAlign=middle;shape=mxgraph.arrows2.arrow;dy=0.6;dx=14.19;direction=south;notch=0;fontColor=#000000;fillColor=#1A1A1A;" vertex="1" parent="1">
                    <mxGeometry x="2029" y="-1184" width="30" height="30" as="geometry"/>
                </mxCell>
                <mxCell id="62" value="Downloads" style="text;html=1;strokeColor=none;fillColor=none;align=center;verticalAlign=middle;whiteSpace=wrap;rounded=0;fontColor=#000000;" vertex="1" parent="1">
                    <mxGeometry x="2014" y="-1150" width="56" height="20" as="geometry"/>
                </mxCell>
                <mxCell id="63" value="" style="sketch=0;pointerEvents=1;shadow=0;dashed=0;html=1;strokeColor=none;fillColor=#1A1A1A;labelPosition=center;verticalLabelPosition=bottom;verticalAlign=top;outlineConnect=0;align=center;shape=mxgraph.office.concepts.video_play;fontColor=#000000;" vertex="1" parent="1">
                    <mxGeometry x="1817.5" y="-1185" width="45" height="33.34" as="geometry"/>
                </mxCell>
                <mxCell id="64" value="Practice" style="text;html=1;strokeColor=none;fillColor=none;align=center;verticalAlign=middle;whiteSpace=wrap;rounded=0;fontColor=#000000;" vertex="1" parent="1">
                    <mxGeometry x="1810" y="-1146.6599999999999" width="60" height="20" as="geometry"/>
                </mxCell>
                <mxCell id="65" value="&lt;font style=&quot;font-size: 40px;&quot;&gt;PolyCode&lt;/font&gt;" style="rounded=0;whiteSpace=wrap;html=1;strokeColor=none;fontSize=40;strokeWidth=0;fillColor=none;" vertex="1" parent="1">
                    <mxGeometry x="1826.25" y="-2120" width="247.5" height="60" as="geometry"/>
                </mxCell>
                <mxCell id="66" value="Account" style="text;html=1;strokeColor=none;fillColor=none;align=center;verticalAlign=middle;whiteSpace=wrap;rounded=0;fontSize=40;" vertex="1" parent="1">
                    <mxGeometry x="1858.75" y="-2180" width="180" height="30" as="geometry"/>
                </mxCell>
                <mxCell id="80" value="Username" style="rounded=0;whiteSpace=wrap;html=1;labelBackgroundColor=none;fontSize=25;fontColor=none;strokeWidth=1;fillColor=none;" vertex="1" parent="1">
                    <mxGeometry x="1720" y="-2040" width="170" height="40" as="geometry"/>
                </mxCell>
                <mxCell id="81" value="200 pts" style="rounded=0;whiteSpace=wrap;html=1;labelBackgroundColor=none;fontSize=25;fontColor=none;strokeWidth=1;fillColor=none;" vertex="1" parent="1">
                    <mxGeometry x="2000" y="-2040" width="170" height="40" as="geometry"/>
                </mxCell>
                <mxCell id="82" value="email" style="rounded=0;whiteSpace=wrap;html=1;labelBackgroundColor=none;fontSize=25;fontColor=none;strokeWidth=1;fillColor=none;" vertex="1" parent="1">
                    <mxGeometry x="1720" y="-1980" width="440" height="40" as="geometry"/>
                </mxCell>
                <mxCell id="84" value="Logout" style="rounded=1;html=1;shadow=0;dashed=0;whiteSpace=wrap;fontSize=25;fillColor=#A10005;align=center;strokeColor=#4D4D4D;fontColor=#ffffff;labelBackgroundColor=none;" vertex="1" parent="1">
                    <mxGeometry x="1730" y="-1260" width="440" height="36.88" as="geometry"/>
                </mxCell>
                <mxCell id="85" value="Teams" style="rounded=1;html=1;shadow=0;dashed=0;whiteSpace=wrap;fontSize=25;fillColor=#A10005;align=center;strokeColor=#4D4D4D;fontColor=#ffffff;labelBackgroundColor=none;" vertex="1" parent="1">
                    <mxGeometry x="1725" y="-1360" width="440" height="36.88" as="geometry"/>
                </mxCell>
            </root>
        </mxGraphModel>
    </diagram>
</mxfile>